@startuml
left to right direction

class RegistarEstafetaUI {
    +void run(int numeroFicheiro)
}

class RegistarEstafetaController {
    +void validarEstafeta(String email, String password, String nome, int nif, int telefone, String numSegSocial,double cargaMaxima, String morada, double latitude, double longitude, double altitude)
    +void registarEstafeta(String email, String password, String nome, int nif, int telefone, String numSegSocial,double cargaMaxima, String morada, double latitude, double longitude, double altitude)
}

class ValidarParametros {
    +void validarParametrosUtilizadorString email, String password, String nome, int nif, int telefone)
    +void validarParametrosEstafeta(int numSegSocial, double cargaMaxima)
    +void validaParametrosMorada(String morada, double longitude, double latitude, double altitude)
}

class EstafetaBD {
    +boolean validaEstafeta(Estafeta estafeta)
}

class AplicacaoPOT {
    +AplicacaoPOT getInstance()
    +SessaoUtilizador getSessaoUtilizador()
}

class SessaoUtilizador {
    -Utilizador m_oUtilizador
    +String getEmailUtilizador()
}

class Utilizador {
    -String email
    +String getEmail()
}

class FarmaciaBD {
    +Farmacia getFarmaciaByGestor(String emailGestor)
}

class BaseDados {
    -Connection connection
    +Connection getConnection()
    +String closeConnection()
}

class UtilizadorBD {
    +boolean novoUtilizador(String email, String password, String nome, int nif, int telemovel, int papel, String morada, double latitude, double longitude, double altitude)
}

class Connection {
}

class MoradaBD {
    +boolean validaMorada(String morada, double latitude, double longitude, double altitude)
}

RegistarEstafetaUI ..> RegistarEstafetaController

RegistarEstafetaController ..> ValidarParametros
RegistarEstafetaController ..> EstafetaBD
RegistarEstafetaController ..> UtilizadorBD
RegistarEstafetaController ..> MoradaBD
RegistarEstafetaController ..> AplicacaoPOT
RegistarEstafetaController ..> FarmaciaBD

AplicacaoPOT ..> SessaoUtilizador

SessaoUtilizador ..> Utilizador

FarmaciaBD ..> BaseDados

MoradaBD ..> BaseDados

EstafetaBD ..> BaseDados

BaseDados ..> Connection

@enduml